<svg width="30" height="30" viewBox="0 0 30 30">
  <path id="instagram" d="M18.536,7.878c-.922-.043-1.2-.05-3.536-.05s-2.613.009-3.535.05c-2.374.109-3.479,1.232-3.587,3.587-.041.922-.051,1.2-.051,3.535s.01,2.612.051,3.536c.109,2.349,1.209,3.479,3.587,3.587.921.041,1.2.051,3.535.051s2.614-.009,3.536-.051c2.374-.107,3.478-1.235,3.587-3.587.041-.922.05-1.2.05-3.536s-.009-2.613-.05-3.535c-.11-2.354-1.216-3.479-3.587-3.588ZM15,19.494A4.493,4.493,0,1,1,19.494,15,4.494,4.494,0,0,1,15,19.494Zm4.671-8.114a1.05,1.05,0,1,1,1.05-1.05A1.05,1.05,0,0,1,19.671,11.38ZM17.916,15A2.916,2.916,0,1,1,15,12.084,2.916,2.916,0,0,1,17.916,15ZM15,0A15,15,0,1,0,30,15,15,15,0,0,0,15,0Zm8.7,18.607c-.144,3.181-1.915,4.944-5.089,5.09-.934.042-1.233.052-3.609.052s-2.674-.01-3.608-.052c-3.18-.146-4.944-1.911-5.09-5.09C6.26,17.675,6.25,17.376,6.25,15s.01-2.674.052-3.608c.146-3.18,1.911-4.944,5.09-5.089C12.326,6.26,12.624,6.25,15,6.25s2.675.01,3.609.054c3.181.146,4.946,1.915,5.089,5.089.042.934.052,1.231.052,3.608S23.74,17.675,23.7,18.607Z" fill="#e9e8e8"/>
</svg>
