<svg width="58.831" height="58.832" viewBox="0 0 58.831 58.832">
  <g id="logo" transform="translate(-0.004)">
    <g id="Group_2" data-name="Group 2">
      <g id="Group_1" data-name="Group 1">
        <path id="Path_1" data-name="Path 1" d="M29.419,0a29.364,29.364,0,0,0-27.3,40.3l.728-1.083L14.29,19.8A2.451,2.451,0,0,1,16.349,18.6a2.513,2.513,0,0,1,2.106,1.115l2.66,4.089,6.192-10.506a2.453,2.453,0,0,1,4.287.115L40.222,30l3.822-6.479A2.447,2.447,0,0,1,46.1,22.314a2.512,2.512,0,0,1,2.111,1.118L56.96,36.889l.632.946A29.381,29.381,0,0,0,29.419,0Z" transform="translate(-0.004)" fill="#dbdbdb"/>
        <path id="Path_2" data-name="Path 2" d="M107.8,170.519,90.389,200.037l-1.679,2.52a29.286,29.286,0,0,0,14.146,6.729c.346-.873.627-1.615.76-2.039a2.42,2.42,0,0,1,.341-1.257L115.8,185.9Z" transform="translate(-78.517 -150.926)" fill="#dbdbdb"/>
        <path id="Path_3" data-name="Path 3" d="M52.525,223.667,43.012,239.8,40.7,243.236a30.174,30.174,0,0,0,2.008,2.792l1.039-1.554,10.607-17.992Z" transform="translate(-36.024 -197.967)" fill="#dbdbdb"/>
        <path id="Path_4" data-name="Path 4" d="M272.827,256.051l-16.274,27.6a13.807,13.807,0,0,1-.564,1.814h0a29.436,29.436,0,0,0,25.92-15.534l-2.476-3.714Z" transform="translate(-226.575 -226.63)" fill="#dbdbdb"/>
      </g>
    </g>
  </g>
</svg>
